<?xml version="1.0" encoding="UTF-8" standalone="no"?> <svg xmlns="http://www.w3.org/2000/svg" xmlns:xlink="http://www.w3.org/1999/xlink" xmlns:serif="http://www.serif.com/" width="100%" height="100%" viewBox="0 0 800 480" version="1.1" xml:space="preserve" style="fill-rule:evenodd;clip-rule:evenodd;stroke-linejoin:round;stroke-miterlimit:2;"><rect id="git-tree" x="0" y="0" width="800" height="480" style="fill:#006097;"></rect><clipPath id="_clip1"><rect id="git-tree1" serif:id="git-tree" x="0" y="0" width="800" height="480"></rect></clipPath><g clip-path="url(#_clip1)"><g opacity="0.28"><path d="M634.163,179.59c5.191,-3.517 12.26,-2.158 15.777,3.033c3.517,5.191 2.157,12.26 -3.033,15.777c-5.191,3.516 -12.26,2.157 -15.777,-3.034c-3.517,-5.19 -2.157,-12.26 3.033,-15.776Z" style="fill:#fff;"></path><path d="M686.045,153.32l-47.626,32.266l4.497,6.639l47.627,-32.266l-4.498,-6.639Z" style="fill:#fff;"></path><path d="M225.322,358.098c5.191,-3.517 12.26,-2.158 15.777,3.033c3.516,5.191 2.157,12.26 -3.033,15.777c-5.191,3.516 -12.26,2.157 -15.777,-3.034c-3.517,-5.19 -2.158,-12.26 3.033,-15.776Z" style="fill:#fff;"></path><path d="M679.216,50.595c5.191,-3.517 12.26,-2.158 15.777,3.033c3.516,5.191 2.157,12.26 -3.033,15.777c-5.191,3.516 -12.26,2.157 -15.777,-3.034c-3.517,-5.19 -2.157,-12.26 3.033,-15.776Z" style="fill:#fff;"></path><path d="M731.098,24.325l-47.627,32.266l4.498,6.639l47.627,-32.266l-4.498,-6.639Z" style="fill:#fff;"></path><path d="M-4.077,415.038c5.191,-3.517 12.26,-2.157 15.777,3.033c3.516,5.191 2.157,12.26 -3.034,15.777c-5.19,3.517 -12.26,2.157 -15.776,-3.033c-3.517,-5.191 -2.158,-12.26 3.033,-15.777Z" style="fill:#fff;"></path><path d="M90.908,359.566l-90.778,61.501l4.497,6.639l90.779,-61.501l-4.498,-6.639Z" style="fill:#fff;"></path><path d="M88.866,352.071c5.191,-3.516 12.26,-2.157 15.777,3.033c3.516,5.191 2.157,12.26 -3.034,15.777c-5.19,3.517 -12.26,2.157 -15.776,-3.033c-3.517,-5.191 -2.158,-12.26 3.033,-15.777Z" style="fill:#fff;"></path><path d="M186.073,393.567l43.504,-29.473l4.498,6.639l-47.035,31.865l-93.213,-37.458l2.99,-7.441l89.256,35.868Z" style="fill:#fff;"></path><path d="M638.419,185.586l4.497,6.639l-228.054,154.501l-91.234,-36.663l-39.229,26.649l-0.064,-9.715l38.317,-25.955l91.243,36.654l224.524,-152.11Z" style="fill:#fff;"></path><path d="M369.156,269.532l314.315,-212.941l4.498,6.639l-317.75,215.268l-2.074,-0.73l-93.213,-37.459l2.99,-7.44l91.234,36.663Z" style="fill:#fff;"></path><path d="M93.073,358.1l181.557,-123.001l4.498,6.639l-181.558,123.001l-4.497,-6.639Z" style="fill:#fff;"></path><path d="M273.148,334.576l-0.278,-96.146l8.019,-0.023l0.25,100.06l-47.064,32.266l-4.498,-6.639l43.571,-29.518Z" style="fill:#fff;"></path><path d="M726.468,-68.346l0.284,98.277l8.019,-0.023l-0.284,-98.277l-8.019,0.023Z" style="fill:#fff;"></path><path d="M682.234,59.61l0.29,100.349l8.019,-0.024l-0.29,-100.348l-8.019,0.023Z" style="fill:#fff;"></path><path d="M270.375,229.103c5.191,-3.517 12.26,-2.158 15.777,3.033c3.516,5.191 2.157,12.26 -3.034,15.777c-5.19,3.516 -12.26,2.157 -15.776,-3.034c-3.517,-5.19 -2.158,-12.26 3.033,-15.776Z" style="fill:#fff;"></path><path d="M637.746,-10.904l4.497,6.639l-181.557,123.001l-0.242,-0.356l0.242,0.356l-181.558,123.002l-4.498,-6.639l363.116,-246.003Z" style="fill:#fff;"></path><path d="M322.529,399.594l46.92,-31.896l91.279,36.742l41.859,-28.359l4.498,6.639l-45.414,30.767l-0.024,-0.036l-91.187,-36.644l-46.964,31.818l-93.213,-37.459l2.99,-7.44l89.256,35.868Z" style="fill:#fff;"></path><path d="M498.332,370.085c5.19,-3.516 12.26,-2.157 15.776,3.034c3.517,5.191 2.158,12.26 -3.033,15.776c-5.191,3.517 -12.26,2.158 -15.777,-3.033c-3.516,-5.191 -2.157,-12.26 3.034,-15.777Z" style="fill:#fff;"></path><path d="M593.366,314.581l-90.779,61.5l4.498,6.639l90.778,-61.5l-4.497,-6.639Z" style="fill:#fff;"></path><path d="M589.111,308.585c5.19,-3.517 12.26,-2.158 15.776,3.033c3.517,5.191 2.158,12.26 -3.033,15.777c-5.191,3.516 -12.26,2.157 -15.777,-3.034c-3.516,-5.19 -2.157,-12.26 3.034,-15.776Z" style="fill:#fff;"></path><path d="M636.575,285.308l-0.28,-96.669l8.019,-0.023l0.297,100.875l-46.748,31.729l-4.497,-6.639l43.209,-29.273Z" style="fill:#fff;"></path></g><g opacity="0.35"><path d="M105.322,94.098c5.191,-3.517 12.26,-2.158 15.777,3.033c3.516,5.191 2.157,12.26 -3.033,15.777c-5.191,3.516 -12.26,2.157 -15.777,-3.034c-3.517,-5.19 -2.158,-12.26 3.033,-15.776Z" style="fill:#fff;"></path><path d="M66.073,129.567l43.504,-29.473l4.498,6.639l-47.035,31.865l-93.213,-37.458l2.99,-7.441l89.256,35.868Z" style="fill:#fff;"></path><path d="M518.419,-78.414l4.497,6.639l-228.054,154.501l-91.234,-36.663l-39.229,26.649l-0.064,-9.715l38.317,-25.955l91.243,36.654l224.524,-152.11Z" style="fill:#fff;"></path><path d="M249.156,5.532l314.315,-212.941l4.498,6.639l-317.75,215.268l-2.074,-0.73l-93.213,-37.459l2.99,-7.44l91.234,36.663Z" style="fill:#fff;"></path><path d="M-26.927,94.1l181.557,-123.001l4.498,6.639l-181.558,123.001l-4.497,-6.639Z" style="fill:#fff;"></path><path d="M153.148,70.576l-0.278,-96.146l8.019,-0.023l0.25,100.06l-47.064,32.266l-4.498,-6.639l43.571,-29.518Z" style="fill:#fff;"></path><path d="M202.529,135.594l46.92,-31.896l91.279,36.742l41.859,-28.359l4.498,6.639l-45.414,30.767l-0.024,-0.036l-91.187,-36.644l-46.964,31.818l-93.213,-37.459l2.99,-7.44l89.256,35.868Z" style="fill:#fff;"></path><path d="M378.332,106.085c5.19,-3.516 12.26,-2.157 15.776,3.034c3.517,5.191 2.158,12.26 -3.033,15.776c-5.191,3.517 -12.26,2.158 -15.777,-3.033c-3.516,-5.191 -2.157,-12.26 3.034,-15.777Z" style="fill:#fff;"></path><path d="M473.366,50.581l-90.779,61.5l4.498,6.639l90.778,-61.5l-4.497,-6.639Z" style="fill:#fff;"></path><path d="M469.111,44.585c5.19,-3.517 12.26,-2.158 15.776,3.033c3.517,5.191 2.158,12.26 -3.033,15.777c-5.191,3.516 -12.26,2.157 -15.777,-3.034c-3.516,-5.19 -2.157,-12.26 3.034,-15.776Z" style="fill:#fff;"></path><path d="M516.575,21.308l-0.28,-96.669l8.019,-0.023l0.297,100.875l-46.748,31.729l-4.497,-6.639l43.209,-29.273Z" style="fill:#fff;"></path></g><g opacity="0.17"><path d="M311.163,6.59c5.191,-3.517 12.26,-2.158 15.777,3.033c3.517,5.191 2.157,12.26 -3.033,15.777c-5.191,3.516 -12.26,2.157 -15.777,-3.034c-3.517,-5.19 -2.157,-12.26 3.033,-15.776Z" style="fill:#fff;"></path><path d="M363.045,-19.68l-47.626,32.266l4.497,6.639l47.627,-32.266l-4.498,-6.639Z" style="fill:#fff;"></path><path d="M315.419,12.586l4.497,6.639l-228.054,154.501l-91.234,-36.663l-39.229,26.649l-0.064,-9.715l38.317,-25.955l91.243,36.654l224.524,-152.11Z" style="fill:#fff;"></path><path d="M46.156,96.532l314.315,-212.941l4.498,6.639l-317.75,215.268l-2.074,-0.73l-93.213,-37.459l2.99,-7.44l91.234,36.663Z" style="fill:#fff;"></path><path d="M314.746,-183.904l4.497,6.639l-181.557,123.001l-0.242,-0.356l0.242,0.356l-181.558,123.002l-4.498,-6.639l363.116,-246.003Z" style="fill:#fff;"></path><path d="M-0.471,226.594l46.92,-31.896l91.279,36.742l41.859,-28.359l4.498,6.639l-45.414,30.767l-0.024,-0.036l-91.187,-36.644l-46.964,31.818l-93.213,-37.459l2.99,-7.44l89.256,35.868Z" style="fill:#fff;"></path><path d="M175.332,197.085c5.19,-3.516 12.26,-2.157 15.776,3.034c3.517,5.191 2.158,12.26 -3.033,15.776c-5.191,3.517 -12.26,2.158 -15.777,-3.033c-3.516,-5.191 -2.157,-12.26 3.034,-15.777Z" style="fill:#fff;"></path><path d="M270.366,141.581l-90.779,61.5l4.498,6.639l90.778,-61.5l-4.497,-6.639Z" style="fill:#fff;"></path><path d="M266.111,135.585c5.19,-3.517 12.26,-2.158 15.776,3.033c3.517,5.191 2.158,12.26 -3.033,15.777c-5.191,3.516 -12.26,2.157 -15.777,-3.034c-3.516,-5.19 -2.157,-12.26 3.034,-15.776Z" style="fill:#fff;"></path><path d="M313.575,112.308l-0.28,-96.669l8.019,-0.023l0.297,100.875l-46.748,31.729l-4.497,-6.639l43.209,-29.273Z" style="fill:#fff;"></path></g><g opacity="0.14"><path d="M721.163,367.59c5.191,-3.517 12.26,-2.158 15.777,3.033c3.517,5.191 2.157,12.26 -3.033,15.777c-5.191,3.516 -12.26,2.157 -15.777,-3.034c-3.517,-5.19 -2.157,-12.26 3.033,-15.776Z" style="fill:#fff;"></path><path d="M773.045,341.32l-47.626,32.266l4.497,6.639l47.627,-32.266l-4.498,-6.639Z" style="fill:#fff;"></path><path d="M766.216,238.595c5.191,-3.517 12.26,-2.158 15.777,3.033c3.516,5.191 2.157,12.26 -3.033,15.777c-5.191,3.516 -12.26,2.157 -15.777,-3.034c-3.517,-5.19 -2.157,-12.26 3.033,-15.776Z" style="fill:#fff;"></path><path d="M818.098,212.325l-47.627,32.266l4.498,6.639l47.627,-32.266l-4.498,-6.639Z" style="fill:#fff;"></path><path d="M725.419,373.586l4.497,6.639l-228.054,154.501l-91.234,-36.663l-39.229,26.649l-0.064,-9.715l38.317,-25.955l91.243,36.654l224.524,-152.11Z" style="fill:#fff;"></path><path d="M456.156,457.532l314.315,-212.941l4.498,6.639l-317.75,215.268l-2.074,-0.73l-93.213,-37.459l2.99,-7.44l91.234,36.663Z" style="fill:#fff;"></path><path d="M180.073,546.1l181.557,-123.001l4.498,6.639l-181.558,123.001l-4.497,-6.639Z" style="fill:#fff;"></path><path d="M360.148,522.576l-0.278,-96.146l8.019,-0.023l0.25,100.06l-47.064,32.266l-4.498,-6.639l43.571,-29.518Z" style="fill:#fff;"></path><path d="M768.398,247.61l0.284,98.277l8.019,-0.023l-0.284,-98.277l-8.019,0.023Z" style="fill:#fff;"></path><path d="M357.375,417.103c5.191,-3.517 12.26,-2.158 15.777,3.033c3.516,5.191 2.157,12.26 -3.034,15.777c-5.19,3.516 -12.26,2.157 -15.776,-3.034c-3.517,-5.19 -2.158,-12.26 3.033,-15.776Z" style="fill:#fff;"></path><path d="M724.746,177.096l4.497,6.639l-181.557,123.001l-0.242,-0.356l0.242,0.356l-181.558,123.002l-4.498,-6.639l363.116,-246.003Z" style="fill:#fff;"></path><path d="M815.524,115.596l-90.778,61.5l4.497,6.639l90.779,-61.5l-4.498,-6.639Z" style="fill:#fff;"></path><path d="M723.575,473.308l-0.28,-96.669l8.019,-0.023l0.297,100.875l-46.748,31.729l-4.497,-6.639l43.209,-29.273Z" style="fill:#fff;"></path></g><path d="M613.022,211.55c0,-2.026 -0.805,-3.97 -2.238,-5.404c-1.434,-1.433 -3.378,-2.238 -5.405,-2.238c-53.172,0 -367.356,0 -420.528,0c-2.027,0 -3.971,0.805 -5.404,2.238c-1.433,1.434 -2.238,3.378 -2.238,5.404c0,13.667 0,42.14 0,55.807c0,2.027 0.805,3.971 2.238,5.405c1.433,1.433 3.377,2.238 5.404,2.238c53.172,0 367.356,0 420.528,0c2.027,0 3.971,-0.805 5.405,-2.238c1.433,-1.434 2.238,-3.378 2.238,-5.405c0,-13.667 0,-42.14 0,-55.807Z" style="fill:#1c1c1c;fill-opacity:0.75;"></path><path d="M211.383,247.266c0,0.608 0.324,1.104 0.972,1.488c0.648,0.384 1.596,0.576 2.844,0.576c0.672,0 1.28,-0.068 1.824,-0.204c0.544,-0.136 1.008,-0.316 1.392,-0.54c0.384,-0.224 0.676,-0.48 0.876,-0.768c0.2,-0.288 0.3,-0.584 0.3,-0.888c0,-0.56 -0.22,-0.936 -0.66,-1.128c-0.44,-0.192 -1.108,-0.288 -2.004,-0.288l-2.28,0c-0.336,0 -0.652,-0.012 -0.948,-0.036c-0.296,-0.024 -0.572,-0.076 -0.828,-0.156c-0.56,0.304 -0.948,0.62 -1.164,0.948c-0.216,0.328 -0.324,0.66 -0.324,0.996Zm-1.704,0.192c0,-0.464 0.164,-0.92 0.492,-1.368c0.328,-0.448 0.804,-0.856 1.428,-1.224l0,-0.096c-0.32,-0.176 -0.6,-0.416 -0.84,-0.72c-0.24,-0.304 -0.36,-0.704 -0.36,-1.2c0,-0.368 0.12,-0.748 0.36,-1.14c0.24,-0.392 0.584,-0.74 1.032,-1.044l0,-0.096c-0.4,-0.304 -0.74,-0.708 -1.02,-1.212c-0.28,-0.504 -0.42,-1.108 -0.42,-1.812c0,-0.64 0.124,-1.216 0.372,-1.728c0.248,-0.512 0.58,-0.948 0.996,-1.308c0.416,-0.36 0.9,-0.64 1.452,-0.84c0.552,-0.2 1.14,-0.3 1.764,-0.3c0.64,0 1.216,0.096 1.728,0.288l4.824,0l0,1.512l-3.12,0c0.272,0.288 0.52,0.64 0.744,1.056c0.224,0.416 0.336,0.88 0.336,1.392c0,0.624 -0.116,1.184 -0.348,1.68c-0.232,0.496 -0.552,0.916 -0.96,1.26c-0.408,0.344 -0.888,0.608 -1.44,0.792c-0.552,0.184 -1.14,0.276 -1.764,0.276c-0.304,0 -0.628,-0.036 -0.972,-0.108c-0.344,-0.072 -0.676,-0.18 -0.996,-0.324c-0.608,0.384 -0.912,0.832 -0.912,1.344c0,0.464 0.212,0.804 0.636,1.02c0.424,0.216 1.02,0.324 1.788,0.324l2.616,0c1.504,0 2.62,0.208 3.348,0.624c0.728,0.416 1.092,1.12 1.092,2.112c0,0.544 -0.152,1.064 -0.456,1.56c-0.304,0.496 -0.736,0.928 -1.296,1.296c-0.56,0.368 -1.24,0.664 -2.04,0.888c-0.8,0.224 -1.696,0.336 -2.688,0.336c-1.712,0 -3.036,-0.28 -3.972,-0.84c-0.936,-0.56 -1.404,-1.36 -1.404,-2.4Zm5.256,-7.152c0.752,0 1.388,-0.248 1.908,-0.744c0.52,-0.496 0.78,-1.168 0.78,-2.016c0,-0.4 -0.072,-0.768 -0.216,-1.104c-0.144,-0.336 -0.336,-0.624 -0.576,-0.864c-0.24,-0.24 -0.524,-0.428 -0.852,-0.564c-0.328,-0.136 -0.676,-0.204 -1.044,-0.204c-0.368,0 -0.716,0.068 -1.044,0.204c-0.328,0.136 -0.612,0.324 -0.852,0.564c-0.24,0.24 -0.432,0.528 -0.576,0.864c-0.144,0.336 -0.216,0.704 -0.216,1.104c0,0.848 0.264,1.52 0.792,2.016c0.528,0.496 1.16,0.744 1.896,0.744Z" style="fill:#fff;fill-rule:nonzero;"></path><path d="M224.511,233.658l7.392,0l0,11.664l-1.968,0l0,-10.056l-5.424,0l0,-1.608Zm6.192,-2.4c-0.464,0 -0.844,-0.136 -1.14,-0.408c-0.296,-0.272 -0.444,-0.64 -0.444,-1.104c0,-0.464 0.148,-0.836 0.444,-1.116c0.296,-0.28 0.676,-0.42 1.14,-0.42c0.448,0 0.824,0.14 1.128,0.42c0.304,0.28 0.456,0.652 0.456,1.116c0,0.464 -0.152,0.832 -0.456,1.104c-0.304,0.272 -0.68,0.408 -1.128,0.408Z" style="fill:#fff;fill-rule:nonzero;"></path><path d="M241.695,235.266l-3.288,0l0,-1.488l3.36,-0.12l0.264,-3.264l1.632,0l0,3.264l5.736,0l0,1.608l-5.736,0l0,5.544c0,0.528 0.048,0.988 0.144,1.38c0.096,0.392 0.256,0.724 0.48,0.996c0.224,0.272 0.528,0.476 0.912,0.612c0.384,0.136 0.856,0.204 1.416,0.204c0.56,0 1.064,-0.048 1.512,-0.144c0.448,-0.096 0.88,-0.224 1.296,-0.384l0.432,1.44c-0.528,0.192 -1.112,0.356 -1.752,0.492c-0.64,0.136 -1.28,0.204 -1.92,0.204c-0.848,0 -1.56,-0.116 -2.136,-0.348c-0.576,-0.232 -1.036,-0.56 -1.38,-0.984c-0.344,-0.424 -0.592,-0.932 -0.744,-1.524c-0.152,-0.592 -0.228,-1.248 -0.228,-1.968l0,-5.52Z" style="fill:#fff;fill-rule:nonzero;"></path><path d="M267.495,242.298c0,-0.656 0.156,-1.228 0.468,-1.716c0.312,-0.488 0.808,-0.908 1.488,-1.26c0.68,-0.352 1.556,-0.64 2.628,-0.864c1.072,-0.224 2.36,-0.4 3.864,-0.528c-0.016,-0.4 -0.08,-0.776 -0.192,-1.128c-0.112,-0.352 -0.288,-0.66 -0.528,-0.924c-0.24,-0.264 -0.556,-0.476 -0.948,-0.636c-0.392,-0.16 -0.868,-0.24 -1.428,-0.24c-0.768,0 -1.504,0.148 -2.208,0.444c-0.704,0.296 -1.328,0.612 -1.872,0.948l-0.768,-1.344c0.288,-0.192 0.628,-0.388 1.02,-0.588c0.392,-0.2 0.808,-0.38 1.248,-0.54c0.44,-0.16 0.908,-0.292 1.404,-0.396c0.496,-0.104 1,-0.156 1.512,-0.156c1.6,0 2.788,0.436 3.564,1.308c0.776,0.872 1.164,2.036 1.164,3.492l0,7.152l-1.608,0l-0.168,-1.584l-0.072,0c-0.656,0.512 -1.38,0.952 -2.172,1.32c-0.792,0.368 -1.604,0.552 -2.436,0.552c-0.544,0 -1.056,-0.076 -1.536,-0.228c-0.48,-0.152 -0.9,-0.368 -1.26,-0.648c-0.36,-0.28 -0.644,-0.624 -0.852,-1.032c-0.208,-0.408 -0.312,-0.876 -0.312,-1.404Zm1.92,-0.144c0,0.336 0.072,0.62 0.216,0.852c0.144,0.232 0.332,0.424 0.564,0.576c0.232,0.152 0.504,0.264 0.816,0.336c0.312,0.072 0.636,0.108 0.972,0.108c0.672,0 1.332,-0.148 1.98,-0.444c0.648,-0.296 1.308,-0.724 1.98,-1.284l0,-3.072c-1.248,0.096 -2.292,0.232 -3.132,0.408c-0.84,0.176 -1.512,0.388 -2.016,0.636c-0.504,0.248 -0.86,0.528 -1.068,0.84c-0.208,0.312 -0.312,0.66 -0.312,1.044Z" style="fill:#fff;fill-rule:nonzero;"></path><path d="M281.391,239.514c0,-0.944 0.148,-1.796 0.444,-2.556c0.296,-0.76 0.688,-1.404 1.176,-1.932c0.488,-0.528 1.052,-0.936 1.692,-1.224c0.64,-0.288 1.304,-0.432 1.992,-0.432c0.72,0 1.352,0.136 1.896,0.408c0.544,0.272 1.088,0.64 1.632,1.104l-0.072,-2.16l0,-4.488l1.968,0l0,17.088l-1.632,0l-0.168,-1.536l-0.072,0c-0.48,0.496 -1.052,0.924 -1.716,1.284c-0.664,0.36 -1.356,0.54 -2.076,0.54c-0.768,0 -1.46,-0.136 -2.076,-0.408c-0.616,-0.272 -1.148,-0.668 -1.596,-1.188c-0.448,-0.52 -0.792,-1.156 -1.032,-1.908c-0.24,-0.752 -0.36,-1.616 -0.36,-2.592Zm2.04,-0.024c0,1.408 0.3,2.504 0.9,3.288c0.6,0.784 1.444,1.176 2.532,1.176c1.152,0 2.248,-0.584 3.288,-1.752l0,-5.808c-0.528,-0.496 -1.044,-0.848 -1.548,-1.056c-0.504,-0.208 -1.012,-0.312 -1.524,-0.312c-0.512,0 -0.988,0.108 -1.428,0.324c-0.44,0.216 -0.824,0.52 -1.152,0.912c-0.328,0.392 -0.588,0.86 -0.78,1.404c-0.192,0.544 -0.288,1.152 -0.288,1.824Z" style="fill:#fff;fill-rule:nonzero;"></path><path d="M295.791,239.514c0,-0.944 0.148,-1.796 0.444,-2.556c0.296,-0.76 0.688,-1.404 1.176,-1.932c0.488,-0.528 1.052,-0.936 1.692,-1.224c0.64,-0.288 1.304,-0.432 1.992,-0.432c0.72,0 1.352,0.136 1.896,0.408c0.544,0.272 1.088,0.64 1.632,1.104l-0.072,-2.16l0,-4.488l1.968,0l0,17.088l-1.632,0l-0.168,-1.536l-0.072,0c-0.48,0.496 -1.052,0.924 -1.716,1.284c-0.664,0.36 -1.356,0.54 -2.076,0.54c-0.768,0 -1.46,-0.136 -2.076,-0.408c-0.616,-0.272 -1.148,-0.668 -1.596,-1.188c-0.448,-0.52 -0.792,-1.156 -1.032,-1.908c-0.24,-0.752 -0.36,-1.616 -0.36,-2.592Zm2.04,-0.024c0,1.408 0.3,2.504 0.9,3.288c0.6,0.784 1.444,1.176 2.532,1.176c1.152,0 2.248,-0.584 3.288,-1.752l0,-5.808c-0.528,-0.496 -1.044,-0.848 -1.548,-1.056c-0.504,-0.208 -1.012,-0.312 -1.524,-0.312c-0.512,0 -0.988,0.108 -1.428,0.324c-0.44,0.216 -0.824,0.52 -1.152,0.912c-0.328,0.392 -0.588,0.86 -0.78,1.404c-0.192,0.544 -0.288,1.152 -0.288,1.824Z" style="fill:#fff;fill-rule:nonzero;"></path><rect x="325.191" y="236.658" width="10.32" height="1.488" style="fill:#fff;fill-rule:nonzero;"></rect><rect x="339.591" y="236.658" width="10.32" height="1.488" style="fill:#fff;fill-rule:nonzero;"></rect><path d="M356.151,246.306l0,3.936l-1.968,0l0,-16.584l1.632,0l0.168,1.488l0.072,0c0.544,-0.512 1.172,-0.936 1.884,-1.272c0.712,-0.336 1.428,-0.504 2.148,-0.504c0.784,0 1.476,0.14 2.076,0.42c0.6,0.28 1.104,0.68 1.512,1.2c0.408,0.52 0.716,1.144 0.924,1.872c0.208,0.728 0.312,1.548 0.312,2.46c0,0.992 -0.144,1.876 -0.432,2.652c-0.288,0.776 -0.676,1.436 -1.164,1.98c-0.488,0.544 -1.052,0.956 -1.692,1.236c-0.64,0.28 -1.312,0.42 -2.016,0.42c-0.544,0 -1.132,-0.132 -1.764,-0.396c-0.632,-0.264 -1.212,-0.636 -1.74,-1.116l0.048,2.208Zm0,-3.72c0.56,0.496 1.12,0.848 1.68,1.056c0.56,0.208 1.04,0.312 1.44,0.312c1.056,0 1.92,-0.408 2.592,-1.224c0.672,-0.816 1.008,-1.952 1.008,-3.408c0,-0.64 -0.064,-1.224 -0.192,-1.752c-0.128,-0.528 -0.324,-0.98 -0.588,-1.356c-0.264,-0.376 -0.604,-0.668 -1.02,-0.876c-0.416,-0.208 -0.912,-0.312 -1.488,-0.312c-0.512,0 -1.06,0.14 -1.644,0.42c-0.584,0.28 -1.18,0.724 -1.788,1.332l0,5.808Z" style="fill:#fff;fill-rule:nonzero;"></path><path d="M368.295,242.298c0,-0.656 0.156,-1.228 0.468,-1.716c0.312,-0.488 0.808,-0.908 1.488,-1.26c0.68,-0.352 1.556,-0.64 2.628,-0.864c1.072,-0.224 2.36,-0.4 3.864,-0.528c-0.016,-0.4 -0.08,-0.776 -0.192,-1.128c-0.112,-0.352 -0.288,-0.66 -0.528,-0.924c-0.24,-0.264 -0.556,-0.476 -0.948,-0.636c-0.392,-0.16 -0.868,-0.24 -1.428,-0.24c-0.768,0 -1.504,0.148 -2.208,0.444c-0.704,0.296 -1.328,0.612 -1.872,0.948l-0.768,-1.344c0.288,-0.192 0.628,-0.388 1.02,-0.588c0.392,-0.2 0.808,-0.38 1.248,-0.54c0.44,-0.16 0.908,-0.292 1.404,-0.396c0.496,-0.104 1,-0.156 1.512,-0.156c1.6,0 2.788,0.436 3.564,1.308c0.776,0.872 1.164,2.036 1.164,3.492l0,7.152l-1.608,0l-0.168,-1.584l-0.072,0c-0.656,0.512 -1.38,0.952 -2.172,1.32c-0.792,0.368 -1.604,0.552 -2.436,0.552c-0.544,0 -1.056,-0.076 -1.536,-0.228c-0.48,-0.152 -0.9,-0.368 -1.26,-0.648c-0.36,-0.28 -0.644,-0.624 -0.852,-1.032c-0.208,-0.408 -0.312,-0.876 -0.312,-1.404Zm1.92,-0.144c0,0.336 0.072,0.62 0.216,0.852c0.144,0.232 0.332,0.424 0.564,0.576c0.232,0.152 0.504,0.264 0.816,0.336c0.312,0.072 0.636,0.108 0.972,0.108c0.672,0 1.332,-0.148 1.98,-0.444c0.648,-0.296 1.308,-0.724 1.98,-1.284l0,-3.072c-1.248,0.096 -2.292,0.232 -3.132,0.408c-0.84,0.176 -1.512,0.388 -2.016,0.636c-0.504,0.248 -0.86,0.528 -1.068,0.84c-0.208,0.312 -0.312,0.66 -0.312,1.044Z" style="fill:#fff;fill-rule:nonzero;"></path><path d="M385.695,235.266l-3.288,0l0,-1.488l3.36,-0.12l0.264,-3.264l1.632,0l0,3.264l5.736,0l0,1.608l-5.736,0l0,5.544c0,0.528 0.048,0.988 0.144,1.38c0.096,0.392 0.256,0.724 0.48,0.996c0.224,0.272 0.528,0.476 0.912,0.612c0.384,0.136 0.856,0.204 1.416,0.204c0.56,0 1.064,-0.048 1.512,-0.144c0.448,-0.096 0.88,-0.224 1.296,-0.384l0.432,1.44c-0.528,0.192 -1.112,0.356 -1.752,0.492c-0.64,0.136 -1.28,0.204 -1.92,0.204c-0.848,0 -1.56,-0.116 -2.136,-0.348c-0.576,-0.232 -1.036,-0.56 -1.38,-0.984c-0.344,-0.424 -0.592,-0.932 -0.744,-1.524c-0.152,-0.592 -0.228,-1.248 -0.228,-1.968l0,-5.52Z" style="fill:#fff;fill-rule:nonzero;"></path><path d="M397.071,239.514c0,-0.976 0.172,-1.844 0.516,-2.604c0.344,-0.76 0.812,-1.404 1.404,-1.932c0.592,-0.528 1.284,-0.928 2.076,-1.2c0.792,-0.272 1.628,-0.408 2.508,-0.408c0.96,0 1.788,0.168 2.484,0.504c0.696,0.336 1.284,0.736 1.764,1.2l-0.984,1.272c-0.48,-0.416 -0.98,-0.744 -1.5,-0.984c-0.52,-0.24 -1.084,-0.36 -1.692,-0.36c-0.672,0 -1.288,0.108 -1.848,0.324c-0.56,0.216 -1.036,0.524 -1.428,0.924c-0.392,0.4 -0.7,0.876 -0.924,1.428c-0.224,0.552 -0.336,1.164 -0.336,1.836c0,0.672 0.108,1.28 0.324,1.824c0.216,0.544 0.52,1.012 0.912,1.404c0.392,0.392 0.864,0.696 1.416,0.912c0.552,0.216 1.164,0.324 1.836,0.324c0.72,0 1.38,-0.14 1.98,-0.42c0.6,-0.28 1.148,-0.628 1.644,-1.044l0.864,1.272c-0.64,0.576 -1.356,1.024 -2.148,1.344c-0.792,0.32 -1.62,0.48 -2.484,0.48c-0.912,0 -1.756,-0.136 -2.532,-0.408c-0.776,-0.272 -1.452,-0.668 -2.028,-1.188c-0.576,-0.52 -1.024,-1.16 -1.344,-1.92c-0.32,-0.76 -0.48,-1.62 -0.48,-2.58Z" style="fill:#fff;fill-rule:nonzero;"></path><path d="M411.783,228.234l1.968,0l0,4.656l-0.096,2.76c0.624,-0.656 1.288,-1.2 1.992,-1.632c0.704,-0.432 1.512,-0.648 2.424,-0.648c1.392,0 2.412,0.396 3.06,1.188c0.648,0.792 0.972,1.964 0.972,3.516l0,7.248l-1.968,0l0,-6.984c0,-1.104 -0.208,-1.924 -0.624,-2.46c-0.416,-0.536 -1.104,-0.804 -2.064,-0.804c-0.352,0 -0.676,0.044 -0.972,0.132c-0.296,0.088 -0.588,0.22 -0.876,0.396c-0.288,0.176 -0.584,0.396 -0.888,0.66c-0.304,0.264 -0.624,0.572 -0.96,0.924l0,8.136l-1.968,0l0,-17.088Z" style="fill:#fff;fill-rule:nonzero;"></path><path d="M441.039,242.49c0.656,0.48 1.36,0.864 2.112,1.152c0.752,0.288 1.656,0.432 2.712,0.432c1.056,0 1.84,-0.176 2.352,-0.528c0.512,-0.352 0.768,-0.784 0.768,-1.296c0,-0.448 -0.276,-0.848 -0.828,-1.2c-0.552,-0.352 -1.54,-0.704 -2.964,-1.056c-0.608,-0.144 -1.18,-0.32 -1.716,-0.528c-0.536,-0.208 -1.004,-0.452 -1.404,-0.732c-0.4,-0.28 -0.72,-0.588 -0.96,-0.924c-0.24,-0.336 -0.36,-0.712 -0.36,-1.128c0,-0.464 0.104,-0.9 0.312,-1.308c0.208,-0.408 0.516,-0.76 0.924,-1.056c0.408,-0.296 0.92,-0.528 1.536,-0.696c0.616,-0.168 1.324,-0.252 2.124,-0.252c0.88,0 1.736,0.148 2.568,0.444c0.832,0.296 1.536,0.644 2.112,1.044l-0.96,1.272c-0.512,-0.368 -1.08,-0.664 -1.704,-0.888c-0.624,-0.224 -1.296,-0.336 -2.016,-0.336c-0.544,0 -1,0.044 -1.368,0.132c-0.368,0.088 -0.664,0.208 -0.888,0.36c-0.224,0.152 -0.384,0.332 -0.48,0.54c-0.096,0.208 -0.144,0.424 -0.144,0.648c0,0.48 0.328,0.876 0.984,1.188c0.656,0.312 1.512,0.604 2.568,0.876c1.584,0.4 2.756,0.856 3.516,1.368c0.76,0.512 1.14,1.216 1.14,2.112c0,0.48 -0.112,0.928 -0.336,1.344c-0.224,0.416 -0.556,0.784 -0.996,1.104c-0.44,0.32 -0.984,0.572 -1.632,0.756c-0.648,0.184 -1.388,0.276 -2.22,0.276c-1.152,0 -2.212,-0.18 -3.18,-0.54c-0.968,-0.36 -1.812,-0.788 -2.532,-1.284l0.96,-1.296Z" style="fill:#fff;fill-rule:nonzero;"></path><path d="M457.695,235.266l-3.288,0l0,-1.488l3.36,-0.12l0.264,-3.264l1.632,0l0,3.264l5.736,0l0,1.608l-5.736,0l0,5.544c0,0.528 0.048,0.988 0.144,1.38c0.096,0.392 0.256,0.724 0.48,0.996c0.224,0.272 0.528,0.476 0.912,0.612c0.384,0.136 0.856,0.204 1.416,0.204c0.56,0 1.064,-0.048 1.512,-0.144c0.448,-0.096 0.88,-0.224 1.296,-0.384l0.432,1.44c-0.528,0.192 -1.112,0.356 -1.752,0.492c-0.64,0.136 -1.28,0.204 -1.92,0.204c-0.848,0 -1.56,-0.116 -2.136,-0.348c-0.576,-0.232 -1.036,-0.56 -1.38,-0.984c-0.344,-0.424 -0.592,-0.932 -0.744,-1.524c-0.152,-0.592 -0.228,-1.248 -0.228,-1.968l0,-5.52Z" style="fill:#fff;fill-rule:nonzero;"></path><path d="M469.167,248.538c0.16,0.048 0.332,0.088 0.516,0.12c0.184,0.032 0.364,0.048 0.54,0.048c0.816,0 1.48,-0.236 1.992,-0.708c0.512,-0.472 0.912,-1.068 1.2,-1.788l0.36,-0.864l-5.448,-11.688l1.992,0l2.856,6.456c0.224,0.512 0.46,1.064 0.708,1.656c0.248,0.592 0.492,1.168 0.732,1.728l0.096,0c0.208,-0.56 0.42,-1.132 0.636,-1.716c0.216,-0.584 0.42,-1.14 0.612,-1.668l2.544,-6.456l1.872,0l-5.136,12.624c-0.224,0.576 -0.48,1.112 -0.768,1.608c-0.288,0.496 -0.632,0.924 -1.032,1.284c-0.4,0.36 -0.86,0.644 -1.38,0.852c-0.52,0.208 -1.108,0.312 -1.764,0.312c-0.576,0 -1.088,-0.08 -1.536,-0.24l0.408,-1.56Z" style="fill:#fff;fill-rule:nonzero;"></path><path d="M483.495,228.234l5.952,0l0,13.32c0,0.864 0.204,1.484 0.612,1.86c0.408,0.376 0.964,0.564 1.668,0.564c0.64,0 1.376,-0.184 2.208,-0.552l0.504,1.488c-0.528,0.192 -1.024,0.356 -1.488,0.492c-0.464,0.136 -1.016,0.204 -1.656,0.204c-1.248,0 -2.196,-0.352 -2.844,-1.056c-0.648,-0.704 -0.972,-1.752 -0.972,-3.144l0,-11.568l-3.984,0l0,-1.608Z" style="fill:#fff;fill-rule:nonzero;"></path><path d="M497.607,239.514c0,-0.96 0.168,-1.82 0.504,-2.58c0.336,-0.76 0.78,-1.404 1.332,-1.932c0.552,-0.528 1.184,-0.932 1.896,-1.212c0.712,-0.28 1.444,-0.42 2.196,-0.42c0.832,0 1.576,0.132 2.232,0.396c0.656,0.264 1.212,0.636 1.668,1.116c0.456,0.48 0.804,1.056 1.044,1.728c0.24,0.672 0.36,1.416 0.36,2.232c0,0.208 -0.004,0.412 -0.012,0.612c-0.008,0.2 -0.028,0.372 -0.06,0.516l-9.12,0c0.016,0.624 0.14,1.184 0.372,1.68c0.232,0.496 0.544,0.92 0.936,1.272c0.392,0.352 0.856,0.624 1.392,0.816c0.536,0.192 1.124,0.288 1.764,0.288c0.688,0 1.316,-0.096 1.884,-0.288c0.568,-0.192 1.124,-0.456 1.668,-0.792l0.696,1.296c-0.576,0.368 -1.232,0.688 -1.968,0.96c-0.736,0.272 -1.576,0.408 -2.52,0.408c-0.864,0 -1.676,-0.14 -2.436,-0.42c-0.76,-0.28 -1.424,-0.68 -1.992,-1.2c-0.568,-0.52 -1.016,-1.156 -1.344,-1.908c-0.328,-0.752 -0.492,-1.608 -0.492,-2.568Zm9.408,-0.96c0,-1.168 -0.304,-2.064 -0.912,-2.688c-0.608,-0.624 -1.456,-0.936 -2.544,-0.936c-0.48,0 -0.94,0.08 -1.38,0.24c-0.44,0.16 -0.836,0.396 -1.188,0.708c-0.352,0.312 -0.648,0.692 -0.888,1.14c-0.24,0.448 -0.4,0.96 -0.48,1.536l7.392,0Z" style="fill:#fff;fill-rule:nonzero;"></path><path d="M515.607,243.594c0,-0.608 0.188,-1.1 0.564,-1.476c0.376,-0.376 0.836,-0.564 1.38,-0.564c0.544,0 1.004,0.188 1.38,0.564c0.376,0.376 0.564,0.868 0.564,1.476c0,0.608 -0.188,1.096 -0.564,1.464c-0.376,0.368 -0.836,0.552 -1.38,0.552c-0.544,0 -1.004,-0.184 -1.38,-0.552c-0.376,-0.368 -0.564,-0.856 -0.564,-1.464Z" style="fill:#fff;fill-rule:nonzero;"></path><path d="M527.439,242.49c0.656,0.48 1.36,0.864 2.112,1.152c0.752,0.288 1.656,0.432 2.712,0.432c1.056,0 1.84,-0.176 2.352,-0.528c0.512,-0.352 0.768,-0.784 0.768,-1.296c0,-0.448 -0.276,-0.848 -0.828,-1.2c-0.552,-0.352 -1.54,-0.704 -2.964,-1.056c-0.608,-0.144 -1.18,-0.32 -1.716,-0.528c-0.536,-0.208 -1.004,-0.452 -1.404,-0.732c-0.4,-0.28 -0.72,-0.588 -0.96,-0.924c-0.24,-0.336 -0.36,-0.712 -0.36,-1.128c0,-0.464 0.104,-0.9 0.312,-1.308c0.208,-0.408 0.516,-0.76 0.924,-1.056c0.408,-0.296 0.92,-0.528 1.536,-0.696c0.616,-0.168 1.324,-0.252 2.124,-0.252c0.88,0 1.736,0.148 2.568,0.444c0.832,0.296 1.536,0.644 2.112,1.044l-0.96,1.272c-0.512,-0.368 -1.08,-0.664 -1.704,-0.888c-0.624,-0.224 -1.296,-0.336 -2.016,-0.336c-0.544,0 -1,0.044 -1.368,0.132c-0.368,0.088 -0.664,0.208 -0.888,0.36c-0.224,0.152 -0.384,0.332 -0.48,0.54c-0.096,0.208 -0.144,0.424 -0.144,0.648c0,0.48 0.328,0.876 0.984,1.188c0.656,0.312 1.512,0.604 2.568,0.876c1.584,0.4 2.756,0.856 3.516,1.368c0.76,0.512 1.14,1.216 1.14,2.112c0,0.48 -0.112,0.928 -0.336,1.344c-0.224,0.416 -0.556,0.784 -0.996,1.104c-0.44,0.32 -0.984,0.572 -1.632,0.756c-0.648,0.184 -1.388,0.276 -2.22,0.276c-1.152,0 -2.212,-0.18 -3.18,-0.54c-0.968,-0.36 -1.812,-0.788 -2.532,-1.284l0.96,-1.296Z" style="fill:#fff;fill-rule:nonzero;"></path><path d="M541.071,239.514c0,-0.976 0.172,-1.844 0.516,-2.604c0.344,-0.76 0.812,-1.404 1.404,-1.932c0.592,-0.528 1.284,-0.928 2.076,-1.2c0.792,-0.272 1.628,-0.408 2.508,-0.408c0.96,0 1.788,0.168 2.484,0.504c0.696,0.336 1.284,0.736 1.764,1.2l-0.984,1.272c-0.48,-0.416 -0.98,-0.744 -1.5,-0.984c-0.52,-0.24 -1.084,-0.36 -1.692,-0.36c-0.672,0 -1.288,0.108 -1.848,0.324c-0.56,0.216 -1.036,0.524 -1.428,0.924c-0.392,0.4 -0.7,0.876 -0.924,1.428c-0.224,0.552 -0.336,1.164 -0.336,1.836c0,0.672 0.108,1.28 0.324,1.824c0.216,0.544 0.52,1.012 0.912,1.404c0.392,0.392 0.864,0.696 1.416,0.912c0.552,0.216 1.164,0.324 1.836,0.324c0.72,0 1.38,-0.14 1.98,-0.42c0.6,-0.28 1.148,-0.628 1.644,-1.044l0.864,1.272c-0.64,0.576 -1.356,1.024 -2.148,1.344c-0.792,0.32 -1.62,0.48 -2.484,0.48c-0.912,0 -1.756,-0.136 -2.532,-0.408c-0.776,-0.272 -1.452,-0.668 -2.028,-1.188c-0.576,-0.52 -1.024,-1.16 -1.344,-1.92c-0.32,-0.76 -0.48,-1.62 -0.48,-2.58Z" style="fill:#fff;fill-rule:nonzero;"></path><path d="M556.239,242.49c0.656,0.48 1.36,0.864 2.112,1.152c0.752,0.288 1.656,0.432 2.712,0.432c1.056,0 1.84,-0.176 2.352,-0.528c0.512,-0.352 0.768,-0.784 0.768,-1.296c0,-0.448 -0.276,-0.848 -0.828,-1.2c-0.552,-0.352 -1.54,-0.704 -2.964,-1.056c-0.608,-0.144 -1.18,-0.32 -1.716,-0.528c-0.536,-0.208 -1.004,-0.452 -1.404,-0.732c-0.4,-0.28 -0.72,-0.588 -0.96,-0.924c-0.24,-0.336 -0.36,-0.712 -0.36,-1.128c0,-0.464 0.104,-0.9 0.312,-1.308c0.208,-0.408 0.516,-0.76 0.924,-1.056c0.408,-0.296 0.92,-0.528 1.536,-0.696c0.616,-0.168 1.324,-0.252 2.124,-0.252c0.88,0 1.736,0.148 2.568,0.444c0.832,0.296 1.536,0.644 2.112,1.044l-0.96,1.272c-0.512,-0.368 -1.08,-0.664 -1.704,-0.888c-0.624,-0.224 -1.296,-0.336 -2.016,-0.336c-0.544,0 -1,0.044 -1.368,0.132c-0.368,0.088 -0.664,0.208 -0.888,0.36c-0.224,0.152 -0.384,0.332 -0.48,0.54c-0.096,0.208 -0.144,0.424 -0.144,0.648c0,0.48 0.328,0.876 0.984,1.188c0.656,0.312 1.512,0.604 2.568,0.876c1.584,0.4 2.756,0.856 3.516,1.368c0.76,0.512 1.14,1.216 1.14,2.112c0,0.48 -0.112,0.928 -0.336,1.344c-0.224,0.416 -0.556,0.784 -0.996,1.104c-0.44,0.32 -0.984,0.572 -1.632,0.756c-0.648,0.184 -1.388,0.276 -2.22,0.276c-1.152,0 -2.212,-0.18 -3.18,-0.54c-0.968,-0.36 -1.812,-0.788 -2.532,-1.284l0.96,-1.296Z" style="fill:#fff;fill-rule:nonzero;"></path><path d="M570.639,242.49c0.656,0.48 1.36,0.864 2.112,1.152c0.752,0.288 1.656,0.432 2.712,0.432c1.056,0 1.84,-0.176 2.352,-0.528c0.512,-0.352 0.768,-0.784 0.768,-1.296c0,-0.448 -0.276,-0.848 -0.828,-1.2c-0.552,-0.352 -1.54,-0.704 -2.964,-1.056c-0.608,-0.144 -1.18,-0.32 -1.716,-0.528c-0.536,-0.208 -1.004,-0.452 -1.404,-0.732c-0.4,-0.28 -0.72,-0.588 -0.96,-0.924c-0.24,-0.336 -0.36,-0.712 -0.36,-1.128c0,-0.464 0.104,-0.9 0.312,-1.308c0.208,-0.408 0.516,-0.76 0.924,-1.056c0.408,-0.296 0.92,-0.528 1.536,-0.696c0.616,-0.168 1.324,-0.252 2.124,-0.252c0.88,0 1.736,0.148 2.568,0.444c0.832,0.296 1.536,0.644 2.112,1.044l-0.96,1.272c-0.512,-0.368 -1.08,-0.664 -1.704,-0.888c-0.624,-0.224 -1.296,-0.336 -2.016,-0.336c-0.544,0 -1,0.044 -1.368,0.132c-0.368,0.088 -0.664,0.208 -0.888,0.36c-0.224,0.152 -0.384,0.332 -0.48,0.54c-0.096,0.208 -0.144,0.424 -0.144,0.648c0,0.48 0.328,0.876 0.984,1.188c0.656,0.312 1.512,0.604 2.568,0.876c1.584,0.4 2.756,0.856 3.516,1.368c0.76,0.512 1.14,1.216 1.14,2.112c0,0.48 -0.112,0.928 -0.336,1.344c-0.224,0.416 -0.556,0.784 -0.996,1.104c-0.44,0.32 -0.984,0.572 -1.632,0.756c-0.648,0.184 -1.388,0.276 -2.22,0.276c-1.152,0 -2.212,-0.18 -3.18,-0.54c-0.968,-0.36 -1.812,-0.788 -2.532,-1.284l0.96,-1.296Z" style="fill:#fff;fill-rule:nonzero;"></path></g></svg> 