<svg xmlns="http://www.w3.org/2000/svg" viewBox="0 0 224.289 182.2"><g data-name="Layer 2"><g data-name="ART"><path d="M160.574 1.25H57.595a3.577 3.577 0 00-3.145 1.872l-52.761 97.3a3.577 3.577 0 003.145 5.282h34.214l33.656-65.946 49 64.532a3.577 3.577 0 002.85 1.414h94.899a3.577 3.577 0 003.06-5.43L163.635 2.977a3.577 3.577 0 00-3.06-1.726z" fill="#94a727"/><path d="M203.224 105.704l-5.235 68.564a7.233 7.233 0 01-7.213 6.682H33.994a7.233 7.233 0 01-7.222-6.84l-3.731-68.406 40.633-80.722h93.58z" fill="#fff8e9"/><path d="M190.353 182.2H34.428a8.943 8.943 0 01-8.928-8.454l-3.708-67.974a1.25 1.25 0 01.132-.63L62.558 24.42a1.25 1.25 0 011.116-.688h93.581a1.249 1.249 0 011.086.632l45.97 80.722a1.237 1.237 0 01.16.713l-5.204 68.14a8.98 8.98 0 01-8.914 8.261zM24.307 105.97l3.69 67.64a6.443 6.443 0 006.43 6.091h155.926a6.47 6.47 0 006.422-5.95l5.174-67.76-45.42-79.758H64.443z" fill="#3e4147"/><path d="M160.574 1.25H57.595a3.577 3.577 0 00-3.145 1.872l-52.761 97.3a3.577 3.577 0 003.145 5.282H23.04l39.831-79.129 58.832 77.715a3.577 3.577 0 002.85 1.414h94.899a3.577 3.577 0 003.06-5.43L163.635 2.977a3.577 3.577 0 00-3.06-1.726z" fill="#4495d7"/><path d="M219.452 106.954h-94.9a4.856 4.856 0 01-3.844-1.908L63.087 28.93l-38.93 77.337a1.25 1.25 0 01-1.117.687H4.834A4.827 4.827 0 01.59 99.826l52.762-97.3A4.824 4.824 0 0157.595 0h102.98a4.856 4.856 0 014.13 2.328l58.877 97.3a4.826 4.826 0 01-4.13 7.326zM62.872 25.325a1.252 1.252 0 01.997.495l58.832 77.715a2.336 2.336 0 001.852.92h94.9a2.326 2.326 0 001.99-3.532l-58.877-97.3a2.342 2.342 0 00-1.992-1.123H57.594a2.326 2.326 0 00-2.045 1.219L2.787 101.018a2.328 2.328 0 002.047 3.436H22.27l39.486-78.441a1.25 1.25 0 011.003-.683c.038-.003.076-.005.113-.005z" fill="#3e4147"/><path d="M23.224 110.581l-1.158-17.466L57.028 24.94a2.688 2.688 0 014.554-.371l15.124 20.46 11.39 14.995" fill="#fff8e9"/><path d="M23.223 111.41a.829.829 0 01-.825-.774L21.239 93.17a.832.832 0 01.09-.433l34.962-68.175a3.515 3.515 0 015.956-.486l15.125 20.46 11.383 14.986a.828.828 0 11-1.318 1.002L76.047 45.53l-15.13-20.468a1.86 1.86 0 00-3.153.256L22.906 93.29l1.144 17.237a.828.828 0 01-.772.881l-.055.002zM114.878 182.2h-.049a1.25 1.25 0 01-1.201-1.298l3.078-80.447a1.218 1.218 0 011.297-1.201 1.25 1.25 0 011.201 1.297l-3.078 80.447a1.25 1.25 0 01-1.248 1.202z" fill="#3e4147"/><ellipse cx="65.459" cy="74.192" rx="11.903" ry="16.623" fill="#c4d7e9"/><path d="M65.46 92.064c-7.253 0-13.153-8.017-13.153-17.873 0-9.854 5.9-17.872 13.152-17.872 7.253 0 13.153 8.018 13.153 17.872 0 9.856-5.9 17.873-13.153 17.873zm0-33.245c-5.875 0-10.653 6.896-10.653 15.372s4.778 15.373 10.652 15.373 10.653-6.896 10.653-15.373S71.333 58.82 65.46 58.82z" fill="#3e4147"/><path d="M65.46 91.98a1.25 1.25 0 01-1.25-1.25V57.57a1.25 1.25 0 012.5 0v33.16a1.25 1.25 0 01-1.25 1.25z" fill="#3e4147"/><path d="M76.706 75.485h-23.14a1.25 1.25 0 010-2.5h23.14a1.25 1.25 0 010 2.5z" fill="#3e4147"/><path fill="#c5a7d4" d="M49.309 112.406h40.634v68.544H49.309z"/><path d="M89.942 182.2H49.31a1.25 1.25 0 01-1.25-1.25v-68.544a1.25 1.25 0 011.25-1.25h40.633a1.25 1.25 0 011.25 1.25v68.544a1.25 1.25 0 01-1.25 1.25zm-39.383-2.5h38.133v-66.044H50.56z" fill="#3e4147"/><path fill="#c5a7d4" d="M56.081 121.128H83.17v15.494H56.081z"/><path d="M83.17 137.872H56.081a1.25 1.25 0 01-1.25-1.25v-15.494a1.25 1.25 0 011.25-1.25H83.17a1.25 1.25 0 011.25 1.25v15.494a1.25 1.25 0 01-1.25 1.25zm-25.839-2.5H81.92v-12.994H57.331z" fill="#3e4147"/><path fill="#c5a7d4" d="M56.081 159.548H83.17v15.494H56.081z"/><path d="M83.17 176.292H56.081a1.25 1.25 0 01-1.25-1.25v-15.494a1.25 1.25 0 011.25-1.25H83.17a1.25 1.25 0 011.25 1.25v15.494a1.25 1.25 0 01-1.25 1.25zm-25.839-2.5H81.92v-12.994H57.331z" fill="#3e4147"/><ellipse cx="59.108" cy="147.726" rx="4.977" ry="5.519" fill="#fdbe2a"/><path d="M59.108 154.495a6.793 6.793 0 116.227-6.77 6.523 6.523 0 01-6.226 6.77zm0-11.039a4.31 4.31 0 000 8.54 4.31 4.31 0 000-8.54z" fill="#3e4147"/><path fill="#c4d7e9" d="M183.113 153.245h-50.895l1.231-34.682h50.895l-1.231 34.682z"/><path d="M183.112 154.495h-50.894a1.25 1.25 0 01-1.25-1.294l1.232-34.682a1.25 1.25 0 011.25-1.207h50.894a1.25 1.25 0 011.249 1.294l-1.232 34.683a1.25 1.25 0 01-1.249 1.206zm-49.6-2.5h48.394l1.143-32.183h-48.394z" fill="#3e4147"/><path d="M158.282 154.495h-.05a1.25 1.25 0 01-1.2-1.3l1.385-34.682a1.25 1.25 0 112.498.1l-1.385 34.682a1.25 1.25 0 01-1.248 1.2z" fill="#3e4147"/><path d="M184.344 137.154h-51.51a1.25 1.25 0 010-2.5h51.51a1.25 1.25 0 010 2.5z" fill="#3e4147"/><path fill="#cedd3e" d="M190.911 149.975h-64.952l3.386 12.997h58.18l3.386-12.997z"/><path d="M188.49 164.223H128.38l-4.037-15.498h68.186zm-58.18-2.5h56.249l2.735-10.498h-61.718zM128.924 89.43C108.569 63.83 92.56 43.787 80.675 28.986 63.648 8.103 63.046 8.582 63.046 8.582s-.601.478 15.906 21.774c11.742 14.914 27.66 35.029 48.015 60.63l1.44 1.81.714.898.441.555.355.446c.119.146.213.344.433.281h4.986l8.576-.005 15.082-.018 4.899-.009c41.343-.196 41.343-1.217 41.343-1.217s0-1.021-41.343-1.218l-4.9-.008-15.081-.018-8.576-.005h-3.99l-2.422-3.048z" fill="#3e4147"/><path d="M162.217 17.536l13.33 11.082c2.524 2.098 3.066 5.297 1.21 7.145L134.78 77.556c-1.856 1.848-5.407 1.644-7.931-.455l-13.33-11.082c-2.524-2.098-3.066-5.297-1.21-7.145l41.977-41.793c1.855-1.848 5.406-1.644 7.93.455z" fill="#f7c9a1"/><path d="M131.42 79.805a8.263 8.263 0 01-5.21-1.935l-13.331-11.082a7.008 7.008 0 01-2.668-4.957 4.795 4.795 0 011.393-3.666l41.976-41.793c2.211-2.2 6.372-2.02 9.277.396l13.33 11.08a7.008 7.008 0 012.668 4.958 4.795 4.795 0 01-1.393 3.666l-41.977 41.793a5.687 5.687 0 01-4.066 1.54zm26.214-62.978a3.692 3.692 0 00-2.644.963l-41.976 41.793a2.783 2.783 0 00-.805 2.16 5.016 5.016 0 001.95 3.508l13.33 11.082c2.096 1.742 5.112 1.978 6.586.514l41.977-41.793a2.783 2.783 0 00.805-2.16 5.016 5.016 0 00-1.95-3.508l-13.33-11.081a6.316 6.316 0 00-3.943-1.478z" fill="#3e4147"/><path d="M128.375 14.022l53.656 44.607c2.524 2.1 3.066 5.298 1.21 7.146l-9.575 9.534c-1.856 1.847-5.407 1.644-7.931-.455l-53.656-44.607c-2.524-2.099-3.066-5.298-1.21-7.146l9.575-9.533c1.856-1.848 5.407-1.644 7.931.454z" fill="#f7c9a1"/><path d="M170.306 77.558a8.264 8.264 0 01-5.211-1.936L111.44 31.016a7.006 7.006 0 01-2.668-4.957 4.798 4.798 0 011.39-3.666l9.577-9.535c2.207-2.199 6.368-2.021 9.276.396L182.67 57.86a7.01 7.01 0 012.669 4.958 4.803 4.803 0 01-1.392 3.666l-9.576 9.534a5.686 5.686 0 01-4.065 1.54zM123.79 13.313a3.683 3.683 0 00-2.64.963l-9.578 9.535a2.782 2.782 0 00-.803 2.158 5.02 5.02 0 001.949 3.51l53.655 44.606c2.099 1.745 5.113 1.98 6.587.515l9.575-9.534a2.782 2.782 0 00.805-2.158 5.021 5.021 0 00-1.95-3.51L127.735 14.79a6.317 6.317 0 00-3.944-1.478z" fill="#3e4147"/><path d="M143.406 30.552l19.178 15.944c2.525 2.099 3.067 5.298 1.211 7.146l-5.16 5.137c-1.856 1.848-5.407 1.644-7.931-.455L131.525 42.38c-2.524-2.098-3.066-5.298-1.21-7.145l5.16-5.138c1.856-1.847 5.406-1.644 7.93.455z" fill="#f7c9a1"/><path d="M155.275 61.027a8.267 8.267 0 01-5.21-1.934l-19.18-15.945a7.006 7.006 0 01-2.667-4.957 4.798 4.798 0 011.39-3.666l5.162-5.136c2.207-2.197 6.369-2.023 9.276.394l19.178 15.945a7.006 7.006 0 012.668 4.957 4.798 4.798 0 01-1.39 3.666l-5.162 5.137a5.681 5.681 0 01-4.065 1.54zm-16.452-31.184a3.682 3.682 0 00-2.642.964l-5.161 5.136a2.782 2.782 0 00-.804 2.159 5.02 5.02 0 001.95 3.51l19.178 15.944c2.097 1.742 5.114 1.98 6.585.514l5.161-5.137a2.782 2.782 0 00.804-2.159 5.02 5.02 0 00-1.95-3.51L142.767 31.32a6.316 6.316 0 00-3.944-1.477z" fill="#3e4147"/></g></g></svg>
